<svg width="61" height="61" viewBox="0 0 61 61" fill="none" xmlns="http://www.w3.org/2000/svg">
<g clip-path="url(#clip0_9_822)">
<path d="M20.7301 25.8926C17.061 26.7652 14.332 30.0639 14.332 34.0001C14.332 38.6024 18.063 42.3334 22.6654 42.3334C23.4549 42.3334 24.2187 42.2237 24.9424 42.0185" stroke="black" stroke-width="3.33333" stroke-linecap="round" stroke-linejoin="round"/>
<path d="M41.0444 25.8926C44.7135 26.7652 47.4424 30.0639 47.4424 34.0001C47.4424 38.6024 43.7115 42.3334 39.1091 42.3334C38.3196 42.3334 37.5558 42.2237 36.832 42.0185" stroke="black" stroke-width="3.33333" stroke-linecap="round" stroke-linejoin="round"/>
<path d="M41 25.6667C41 20.1439 36.5228 15.6667 31 15.6667C25.4772 15.6667 21 20.1439 21 25.6667" stroke="black" stroke-width="3.33333" stroke-linecap="round" stroke-linejoin="round"/>
<path d="M25.2227 32.2341L31.0014 26.4363L36.9447 32.3333" stroke="black" stroke-width="3.33333" stroke-linecap="round" stroke-linejoin="round"/>
<path d="M31 40.6666V29.3848" stroke="black" stroke-width="3.33333" stroke-linecap="round" stroke-linejoin="round"/>
</g>
<defs>
<clipPath id="clip0_9_822">
<rect width="61" height="61" fill="white"/>
</clipPath>
</defs>
</svg>
