<svg width="48" height="44" viewBox="0 0 48 44" fill="none" xmlns="http://www.w3.org/2000/svg">
<path d="M5.1 27.22H5.772V31.012H10.212V31.636H5.772V37.012H11.328V37.648H0.708V37.012H5.1V27.22ZM14.112 31.192C13.704 31.784 13.228 32.364 12.684 32.932L12.468 32.248C13.804 30.752 14.764 29.076 15.348 27.22L15.948 27.496C15.636 28.44 15.24 29.328 14.76 30.16V38.2H14.112V31.192ZM16.236 28.84H18.612C18.7 28.48 18.824 27.94 18.984 27.22L19.62 27.28C19.516 27.76 19.396 28.28 19.26 28.84H23.004V29.464H19.092C18.932 30.064 18.776 30.6 18.624 31.072H23.496V31.684H18.42C18.236 32.22 18.012 32.792 17.748 33.4H22.788V33.976C22.252 34.856 21.404 35.744 20.244 36.64C20.932 37.016 21.516 37.372 21.996 37.708L21.636 38.272C20.18 37.256 18.672 36.452 17.112 35.86L17.46 35.332C18.22 35.636 18.956 35.972 19.668 36.34C20.7 35.604 21.512 34.828 22.104 34.012H16.908C17.252 33.196 17.544 32.42 17.784 31.684H15.708V31.072H17.976C18.184 30.408 18.344 29.872 18.456 29.464H16.236V28.84ZM27.696 27.712C27.496 28.28 27.26 28.84 26.988 29.392H29.688V27.232H30.336V29.392H34.452V30.04H30.336V30.964C30.328 31.572 30.28 32.136 30.192 32.656H35.22V33.292H30.612C31.228 35.132 32.836 36.556 35.436 37.564L35.076 38.128C32.34 36.976 30.66 35.388 30.036 33.364C29.812 34.22 29.468 34.964 29.004 35.596C28.172 36.684 26.808 37.528 24.912 38.128L24.54 37.576C26.428 36.976 27.768 36.16 28.56 35.128C28.904 34.616 29.176 34.004 29.376 33.292H24.792V32.656H29.52C29.624 32.104 29.68 31.54 29.688 30.964V30.04H26.628C26.188 30.776 25.696 31.392 25.152 31.888L24.624 31.42C25.712 30.428 26.532 29.108 27.084 27.46L27.696 27.712ZM43.476 29.776L43.332 30.232C43.508 31.952 43.976 33.436 44.736 34.684C45.448 33.324 45.82 31.688 45.852 29.776H43.476ZM42.912 31.264C42.656 31.792 42.368 32.252 42.048 32.644L41.652 32.14C42.54 30.964 43.116 29.3 43.38 27.148L44.028 27.232C43.94 27.84 43.816 28.476 43.656 29.14H47.304V29.776H46.464C46.416 31.936 45.968 33.768 45.12 35.272C45.76 36.168 46.552 36.932 47.496 37.564L47.148 38.152C46.172 37.504 45.372 36.744 44.748 35.872C44.124 36.776 43.348 37.536 42.42 38.152L42.06 37.588C43.02 36.98 43.792 36.22 44.376 35.308C43.664 34.164 43.176 32.816 42.912 31.264ZM41.328 27.76V35.176H40.728V28.36H37.68V35.164H37.068V27.76H41.328ZM39.948 35.584C40.66 36.28 41.244 36.964 41.7 37.636L41.232 38.104C40.8 37.432 40.228 36.728 39.516 35.992L39.948 35.584ZM38.916 29.38H39.504V33.004C39.48 34.38 39.272 35.484 38.88 36.316C38.488 37.084 37.84 37.684 36.936 38.116L36.576 37.564C37.432 37.156 38.044 36.588 38.412 35.86C38.74 35.124 38.908 34.172 38.916 33.004V29.38Z" fill="#999999"/>
<g clip-path="url(#clip0_9_889)">
<path d="M32.2502 18.25L27.1669 13.1667L24.9252 10.925L18.1669 4.16667L16.9919 2.99167L15.7502 1.75L14.5752 2.925L16.5002 4.85833V15.8333C16.5002 16.75 16.5002 17.5 16.5002 17.5H29.1419L31.0669 19.425L32.2502 18.25ZM18.1669 15.8333V6.525L23.8669 12.225L23.1669 13.1L21.5002 10.8333L19.0002 14.1667H25.8085L27.4752 15.8333H18.1669ZM20.5252 4.16667L18.8585 2.5H29.8335C30.7502 2.5 31.5002 2.49999 31.5002 2.49999V15.1417L29.8335 13.475V4.16667H20.5252Z" fill="#333333" fill-opacity="0.2"/>
</g>
<defs>
<clipPath id="clip0_9_889">
<rect width="20" height="20" fill="white" transform="translate(14)"/>
</clipPath>
</defs>
</svg>
