<svg width="104" height="104" viewBox="0 0 104 104" fill="none" xmlns="http://www.w3.org/2000/svg">
<rect x="9.5" y="9.5" width="85" height="85" rx="5.5" fill="#FAFAFA" stroke="#E6E6E6" stroke-dasharray="2 2"/>
<rect x="0.5" y="0.5" width="103" height="103" rx="5.5" stroke="#E0E0E0"/>
<path d="M33.1 56.22H33.772V60.012H38.212V60.636H33.772V66.012H39.328V66.648H28.708V66.012H33.1V56.22ZM42.112 60.192C41.704 60.784 41.228 61.364 40.684 61.932L40.468 61.248C41.804 59.752 42.764 58.076 43.348 56.22L43.948 56.496C43.636 57.44 43.24 58.328 42.76 59.16V67.2H42.112V60.192ZM44.236 57.84H46.612C46.7 57.48 46.824 56.94 46.984 56.22L47.62 56.28C47.516 56.76 47.396 57.28 47.26 57.84H51.004V58.464H47.092C46.932 59.064 46.776 59.6 46.624 60.072H51.496V60.684H46.42C46.236 61.22 46.012 61.792 45.748 62.4H50.788V62.976C50.252 63.856 49.404 64.744 48.244 65.64C48.932 66.016 49.516 66.372 49.996 66.708L49.636 67.272C48.18 66.256 46.672 65.452 45.112 64.86L45.46 64.332C46.22 64.636 46.956 64.972 47.668 65.34C48.7 64.604 49.512 63.828 50.104 63.012H44.908C45.252 62.196 45.544 61.42 45.784 60.684H43.708V60.072H45.976C46.184 59.408 46.344 58.872 46.456 58.464H44.236V57.84ZM55.696 56.712C55.496 57.28 55.26 57.84 54.988 58.392H57.688V56.232H58.336V58.392H62.452V59.04H58.336V59.964C58.328 60.572 58.28 61.136 58.192 61.656H63.22V62.292H58.612C59.228 64.132 60.836 65.556 63.436 66.564L63.076 67.128C60.34 65.976 58.66 64.388 58.036 62.364C57.812 63.22 57.468 63.964 57.004 64.596C56.172 65.684 54.808 66.528 52.912 67.128L52.54 66.576C54.428 65.976 55.768 65.16 56.56 64.128C56.904 63.616 57.176 63.004 57.376 62.292H52.792V61.656H57.52C57.624 61.104 57.68 60.54 57.688 59.964V59.04H54.628C54.188 59.776 53.696 60.392 53.152 60.888L52.624 60.42C53.712 59.428 54.532 58.108 55.084 56.46L55.696 56.712ZM71.476 58.776L71.332 59.232C71.508 60.952 71.976 62.436 72.736 63.684C73.448 62.324 73.82 60.688 73.852 58.776H71.476ZM70.912 60.264C70.656 60.792 70.368 61.252 70.048 61.644L69.652 61.14C70.54 59.964 71.116 58.3 71.38 56.148L72.028 56.232C71.94 56.84 71.816 57.476 71.656 58.14H75.304V58.776H74.464C74.416 60.936 73.968 62.768 73.12 64.272C73.76 65.168 74.552 65.932 75.496 66.564L75.148 67.152C74.172 66.504 73.372 65.744 72.748 64.872C72.124 65.776 71.348 66.536 70.42 67.152L70.06 66.588C71.02 65.98 71.792 65.22 72.376 64.308C71.664 63.164 71.176 61.816 70.912 60.264ZM69.328 56.76V64.176H68.728V57.36H65.68V64.164H65.068V56.76H69.328ZM67.948 64.584C68.66 65.28 69.244 65.964 69.7 66.636L69.232 67.104C68.8 66.432 68.228 65.728 67.516 64.992L67.948 64.584ZM66.916 58.38H67.504V62.004C67.48 63.38 67.272 64.484 66.88 65.316C66.488 66.084 65.84 66.684 64.936 67.116L64.576 66.564C65.432 66.156 66.044 65.588 66.412 64.86C66.74 64.124 66.908 63.172 66.916 62.004V58.38Z" fill="#999999"/>
<g clip-path="url(#clip0_9_886)">
<path d="M60.2502 47.25L55.1669 42.1667L52.9252 39.925L46.1669 33.1667L44.9919 31.9917L43.7502 30.75L42.5752 31.925L44.5002 33.8583V44.8333C44.5002 45.75 44.5002 46.5 44.5002 46.5H57.1419L59.0669 48.425L60.2502 47.25ZM46.1669 44.8333V35.525L51.8669 41.225L51.1669 42.1L49.5002 39.8333L47.0002 43.1667H53.8085L55.4752 44.8333H46.1669ZM48.5252 33.1667L46.8585 31.5H57.8335C58.7502 31.5 59.5002 31.5 59.5002 31.5V44.1417L57.8335 42.475V33.1667H48.5252Z" fill="#333333" fill-opacity="0.2"/>
</g>
<defs>
<clipPath id="clip0_9_886">
<rect width="20" height="20" fill="white" transform="translate(42 29)"/>
</clipPath>
</defs>
</svg>
