<svg width="58" height="40" viewBox="0 0 58 40" fill="none" xmlns="http://www.w3.org/2000/svg">
<path d="M29 39.9998C45.0163 39.9998 58 37.2283 58 33.8095C58 30.3906 45.0163 27.6191 29 27.6191C12.9837 27.6191 0 30.3906 0 33.8095C0 37.2283 12.9837 39.9998 29 39.9998Z" fill="#FAFAFA"/>
<path d="M49.8438 16.3286C49.8438 16.2096 49.8013 16.0944 49.7239 16.0039L44.2739 9.62291C43.8326 9.17841 43.1883 8.90967 42.5095 8.90967H15.4905C14.8118 8.90967 14.1674 9.17841 13.7261 9.62234L8.27602 16.0045C8.19872 16.095 8.15625 16.2101 8.15625 16.3292V21.3829H49.8438V16.3286Z" fill="#FAFAFA" stroke="#E0E0E0"/>
<rect x="16.8125" y="0.5" width="23.4688" height="23.9465" rx="2.5" fill="white" stroke="#E0E0E0"/>
<path d="M37.7118 18.5427C37.7118 17.1233 38.6126 15.9516 39.73 15.9507H49.3438C49.6199 15.9507 49.8438 16.1745 49.8438 16.4507V31.9898C49.8438 33.8673 48.6475 35.406 47.1703 35.406H10.8297C9.3525 35.406 8.15625 33.8664 8.15625 31.9898V16.4507C8.15625 16.1745 8.38011 15.9507 8.65625 15.9507H18.27C19.3874 15.9507 20.2882 17.1207 20.2882 18.54V18.5595C20.2882 19.9788 21.199 21.1249 22.3155 21.1249H35.6845C36.801 21.1249 37.7118 19.9682 37.7118 18.5489V18.5427Z" fill="#F6F6F6" stroke="#E0E0E0"/>
<path opacity="0.5" fill-rule="evenodd" clip-rule="evenodd" d="M8.15625 29.9326V31.9898C8.15625 33.8664 9.3525 35.406 10.8297 35.406H47.1703C48.6475 35.406 49.8438 33.8673 49.8438 31.9898V29.9326C49.8438 31.8101 48.6475 33.3488 47.1703 33.3488H10.8297C9.3525 33.3488 8.15625 31.8092 8.15625 29.9326Z" fill="#E0E0E0"/>
<path d="M37.7118 18.6291C37.7118 17.2097 38.6126 16.038 39.73 16.0371H49.3437C49.6199 16.0371 49.8438 16.261 49.8438 16.5371V32.0763C49.8438 33.9537 48.6475 35.4924 47.1703 35.4924H10.8297C9.3525 35.4924 8.15625 33.9528 8.15625 32.0763V16.5371C8.15625 16.261 8.38011 16.0371 8.65625 16.0371H18.27C19.3874 16.0371 20.2882 17.2071 20.2882 18.6264V18.6459C20.2882 20.0652 21.199 21.2113 22.3155 21.2113H35.6845C36.801 21.2113 37.7118 20.0546 37.7118 18.6353V18.6291Z" stroke="#E0E0E0"/>
<rect x="20.8438" y="25.0327" width="15.4062" height="1.78189" rx="0.890947" fill="#E0E0E0"/>
<path d="M28.6643 9.63944L28.7624 9.68289L28.7989 9.58196L28.9648 9.12227L28.9979 9.0306L28.9071 8.99516L25.4404 7.64171L25.3514 7.60699L25.3126 7.69423L25.1821 7.98788L25.1414 8.07939L25.2329 8.11995L28.6643 9.63944Z" fill="#E0E0E0" stroke="#E0E0E0" stroke-width="0.2"/>
<path d="M29.373 9.02822L29.2879 9.06021L29.3117 9.14796L29.4249 9.56602L29.4548 9.67668L29.5604 9.63197L32.2933 8.47447L32.3723 8.44098L32.3512 8.35774L32.2744 8.05592L32.2469 7.94765L32.1423 7.98696L29.373 9.02822Z" fill="#E0E0E0" stroke="#E0E0E0" stroke-width="0.2"/>
<path d="M28.8922 14.0388V14.1388H28.9922H29.4492H29.5492V14.0388V9.39014V9.29014H29.4492H28.9922H28.8922V9.39014V14.0388Z" fill="#E0E0E0" stroke="#E0E0E0" stroke-width="0.2"/>
<path d="M32.1686 8.5834L32.1686 8.58339C31.9763 8.56724 31.837 8.39572 31.8523 8.20446L32.1686 8.5834ZM32.1686 8.5834C32.3612 8.59955 32.5264 8.45309 32.5418 8.26158L32.5418 8.26157M32.1686 8.5834L32.5418 8.26157M32.5418 8.26157C32.5571 8.07033 32.4178 7.89879 32.2255 7.88265L32.5418 8.26157ZM32.2255 7.88265C32.0329 7.86648 31.8677 8.01292 31.8523 8.20445L32.2255 7.88265Z" fill="#E0E0E0" stroke="#E0E0E0" stroke-width="0.2"/>
<path d="M29.2328 10.2481C29.6993 10.2481 30.0735 9.8618 30.0735 9.3902C30.0735 8.91858 29.6993 8.53232 29.2328 8.53232C28.7664 8.53232 28.3922 8.91858 28.3922 9.3902C28.3922 9.8618 28.7664 10.2481 29.2328 10.2481Z" fill="#E0E0E0" stroke="#E0E0E0" stroke-width="0.2"/>
<path d="M33.2942 7.61051L33.2971 7.51346H33.3942H33.5604H33.6577L33.6604 7.61071L33.7729 11.7023L33.7757 11.8051H33.6729H33.2734H33.1704L33.1735 11.7021L33.2942 7.61051Z" fill="#E0E0E0" stroke="#E0E0E0" stroke-width="0.2"/>
<path d="M33.1522 12.2511L33.2481 12.2043L33.1952 12.1116L33.0346 11.8303L32.9853 11.7439L32.8986 11.7928L30.7888 12.9819L30.6992 13.0324L30.7522 13.1205L30.8444 13.274L30.8915 13.3525L30.9739 13.3124L33.1522 12.2511Z" fill="#E0E0E0" stroke="#E0E0E0" stroke-width="0.2"/>
<path d="M33.5013 7.2891L33.6003 7.31649L33.5702 7.41477L33.4276 7.88055L33.3961 7.98346L33.2957 7.94448L30.0468 6.68206L29.9664 6.65084L29.9855 6.56677L30.0155 6.43398L30.0387 6.33174L30.1397 6.35967L33.5013 7.2891Z" fill="#E0E0E0" stroke="#E0E0E0" stroke-width="0.2"/>
<path d="M34.1176 7.70707C34.1176 7.34496 33.8301 7.04746 33.4707 7.04746C33.1113 7.04746 32.8238 7.34495 32.8238 7.70707C32.8238 8.06917 33.1113 8.36666 33.4707 8.36666C33.8301 8.36666 34.1176 8.06917 34.1176 7.70707Z" fill="#E0E0E0" stroke="#E0E0E0" stroke-width="0.2"/>
<mask id="mask0_128_2807" style="mask-type:alpha" maskUnits="userSpaceOnUse" x="32" y="10" width="3" height="3">
<path d="M32.8398 11.0265H32.7398V11.1265V12.4201V12.5201H32.8398H34.1041H34.2041V12.4201V11.1265V11.0265H34.1041H32.8398Z" fill="white" stroke="black" stroke-width="0.2"/>
</mask>
<g mask="url(#mask0_128_2807)">
<path d="M34.2041 11.7738C34.2041 11.3635 33.8784 11.027 33.472 11.027C33.0655 11.027 32.7398 11.3635 32.7398 11.7738C32.7398 12.184 33.0655 12.5206 33.472 12.5206C33.8784 12.5206 34.2041 12.184 34.2041 11.7738Z" fill="#E0E0E0" stroke="#E0E0E0" stroke-width="0.2"/>
</g>
<path d="M30.0456 6.88564L30.0455 6.88564C29.8532 6.86948 29.714 6.69795 29.7293 6.5067L29.7293 6.50669C29.7446 6.31521 29.9098 6.16872 30.1025 6.1849L30.0456 6.88564ZM30.0456 6.88564C30.2382 6.90179 30.4034 6.75534 30.4187 6.56382M30.0456 6.88564L30.4187 6.56382M30.4187 6.56382C30.4341 6.37257 30.2948 6.20103 30.1025 6.1849L30.4187 6.56382Z" fill="#E0E0E0" stroke="#E0E0E0" stroke-width="0.2"/>
<path d="M30.7409 13.5668L30.7409 13.5668C30.5486 13.5506 30.4093 13.3791 30.4246 13.1879L30.4246 13.1878C30.44 12.9963 30.6051 12.8499 30.7978 12.8661L30.7409 13.5668ZM30.7409 13.5668C30.9335 13.5829 31.0987 13.4365 31.114 13.245L30.7409 13.5668ZM31.114 13.245C31.1294 13.0537 30.9901 12.8822 30.7978 12.8661L31.114 13.245Z" fill="#E0E0E0" stroke="#E0E0E0" stroke-width="0.2"/>
<path d="M24.8235 11.8709L24.8264 11.968H24.9235H25.0897H25.187L25.1897 11.8707L25.3022 7.77912L25.305 7.67637H25.2022H24.8027H24.6997L24.7028 7.77932L24.8235 11.8709Z" fill="#E0E0E0" stroke="#E0E0E0" stroke-width="0.2"/>
<path d="M25.2058 7.1934L25.1067 7.22079L25.1368 7.31906L25.2795 7.78485L25.311 7.88776L25.4113 7.84878L28.6602 6.58635L28.7406 6.55513L28.7216 6.47106L28.6915 6.33827L28.6684 6.23603L28.5673 6.26397L25.2058 7.1934Z" fill="#E0E0E0" stroke="#E0E0E0" stroke-width="0.2"/>
<path d="M28.597 14.0615L28.6911 14.1168L28.738 14.0183L28.9234 13.6286L28.966 13.539L28.8767 13.4957L26.383 12.2855L26.273 12.2321L26.2425 12.3506L26.1883 12.5614L26.1696 12.6343L26.2345 12.6725L28.597 14.0615Z" fill="#E0E0E0" stroke="#E0E0E0" stroke-width="0.2"/>
<path d="M24.9922 8.35885C25.3516 8.35885 25.6391 8.06136 25.6391 7.69924C25.6391 7.33714 25.3516 7.03965 24.9922 7.03965C24.6328 7.03965 24.3453 7.33714 24.3453 7.69924C24.3453 8.06135 24.6328 8.35885 24.9922 8.35885Z" fill="#E0E0E0" stroke="#E0E0E0" stroke-width="0.2"/>
<path d="M25.9363 12.4452L25.9363 12.4452C25.921 12.6364 26.0602 12.808 26.2526 12.8241C26.4452 12.8403 26.6104 12.6938 26.6257 12.5023C26.6411 12.311 26.5018 12.1395 26.3095 12.1234L26.3095 12.1234C26.1169 12.1072 25.9517 12.2537 25.9363 12.4452ZM26.3011 12.223L26.3011 12.223L26.3011 12.223Z" fill="#E0E0E0" stroke="#E0E0E0" stroke-width="0.2"/>
<path d="M24.6472 11.7547L24.6472 11.7547L25.3367 11.8119C25.352 11.6206 25.2127 11.4491 25.0204 11.4329L25.0204 11.4329C24.8278 11.4168 24.6626 11.5632 24.6472 11.7547Z" fill="#E0E0E0" stroke="#E0E0E0" stroke-width="0.2"/>
<path d="M28.6513 6.10433L28.6513 6.10433C28.8436 6.12046 28.9829 6.292 28.9675 6.48324L28.9675 6.48326C28.9522 6.67475 28.787 6.82124 28.5944 6.80507L28.6513 6.10433ZM28.6513 6.10433C28.4587 6.08818 28.2935 6.23461 28.2781 6.42614L28.6513 6.10433ZM28.6429 6.20396L28.6429 6.20396L28.6429 6.20396ZM28.6429 6.20396L28.6429 6.20397L28.6429 6.20396ZM28.2781 6.42616C28.2628 6.6174 28.402 6.78893 28.5943 6.80507L28.2781 6.42616Z" fill="#E0E0E0" stroke="#E0E0E0" stroke-width="0.2"/>
<path d="M29.2211 14.897C29.6876 14.897 30.0618 14.5107 30.0618 14.0391C30.0618 13.5675 29.6876 13.1812 29.2211 13.1812C28.7547 13.1812 28.3805 13.5675 28.3805 14.0391C28.3805 14.5107 28.7547 14.897 29.2211 14.897Z" fill="#E0E0E0" stroke="#E0E0E0" stroke-width="0.2"/>
</svg>
